<?xml version="1.0" standalone="no"?>
<!DOCTYPE svg PUBLIC "-//W3C//DTD SVG 20010904//EN"
 "http://www.w3.org/TR/2001/REC-SVG-20010904/DTD/svg10.dtd">
<svg version="1.0" xmlns="http://www.w3.org/2000/svg"
 width="16.000000pt" height="16.000000pt" viewBox="0 0 16.000000 16.000000"
 preserveAspectRatio="xMidYMid meet">
<metadata>
Created by potrace 1.11, written by Peter Selinger 2001-2013
</metadata>
<g transform="translate(0.000000,16.000000) scale(0.004301,-0.004301)"
fill="#000000" stroke="none">
<path d="M20 1860 l0 -1860 1845 0 1845 0 0 1860 0 1860 -1845 0 -1845 0 0
-1860z m2216 1077 c6 2 16 -8 24 -22 11 -21 23 -30 33 -23 1 1 13 -4 26 -11
22 -12 23 -12 17 5 -7 17 -5 17 16 -1 33 -29 72 -50 62 -34 -5 9 -2 10 12 5
10 -5 35 -12 54 -17 28 -6 32 -5 20 4 -18 14 -24 37 -10 37 11 0 35 -41 32
-53 -1 -5 2 -6 7 -3 5 3 22 -9 38 -27 15 -17 40 -34 53 -35 14 -2 30 -8 35
-12 7 -6 16 -1 23 11 16 26 30 24 38 -6 3 -13 11 -23 18 -22 6 1 10 -6 8 -15
-1 -9 6 -19 17 -23 15 -4 20 -15 20 -38 0 -18 2 -53 4 -80 4 -42 3 -46 -11
-35 -14 12 -14 5 -8 -64 4 -43 3 -78 -1 -78 -15 0 -1 -277 16 -338 5 -17 7
-33 4 -35 -2 -3 0 -14 6 -25 6 -11 11 -43 12 -71 1 -28 6 -51 11 -51 5 0 6 39
3 93 -7 97 5 161 27 139 7 -7 23 -5 55 11 67 33 77 21 81 -91 2 -66 -3 -115
-18 -175 -11 -47 -20 -111 -20 -144 0 -80 -24 -157 -57 -182 -42 -34 -138 -21
-126 17 3 6 0 12 -6 12 -6 0 -11 -12 -11 -27 0 -43 -49 -224 -87 -323 -27 -69
-81 -153 -93 -145 -5 3 -11 -6 -14 -20 -4 -15 -24 -34 -50 -50 -24 -14 -47
-32 -50 -40 -5 -14 -66 -51 -66 -40 0 3 -19 -13 -42 -36 -37 -36 -43 -39 -48
-23 -6 16 -9 15 -25 -9 -9 -15 -24 -27 -31 -27 -8 0 -14 -5 -14 -11 0 -6 -7
-9 -15 -5 -8 3 -15 1 -15 -5 0 -6 -4 -8 -9 -4 -5 3 -12 1 -16 -5 -4 -6 -11 -8
-16 -5 -5 4 -9 2 -9 -3 0 -10 -30 -9 -48 2 -7 4 -12 1 -12 -8 0 -20 -24 -21
-39 -2 -11 13 -15 12 -32 -5 -15 -15 -24 -18 -34 -9 -10 8 -14 8 -18 -2 -3 -7
-5 -2 -4 11 1 17 -5 29 -22 37 -13 7 -28 18 -33 26 -6 9 -7 5 -3 -11 5 -16 4
-21 -4 -17 -6 4 -11 1 -11 -6 -1 -8 -6 -6 -15 6 -7 10 -18 15 -23 12 -14 -8
-22 30 -9 43 6 6 7 14 3 18 -4 5 -16 -3 -27 -16 -13 -16 -20 -19 -23 -10 -2 8
-7 22 -10 33 -4 10 -1 26 6 34 9 10 9 13 1 9 -7 -5 -14 3 -18 22 -5 22 -10 28
-26 24 -24 -7 -25 13 -1 25 23 12 42 4 35 -14 -3 -8 -3 -14 0 -14 11 0 97 41
102 49 3 5 14 7 25 4 12 -3 20 0 20 6 0 7 5 9 10 6 6 -3 10 -3 10 2 0 12 -16
35 -24 34 -20 -3 -26 0 -20 11 4 6 3 8 -4 4 -6 -3 -22 -2 -36 3 -21 9 -24 8
-19 -6 4 -11 3 -14 -5 -9 -7 4 -12 16 -12 26 0 23 -20 37 -30 20 -5 -8 -9 -3
-12 13 -3 18 0 27 11 30 25 6 41 -3 41 -24 0 -12 5 -17 16 -12 8 3 13 12 10
19 -3 8 -9 21 -12 29 -3 8 -1 15 6 15 6 0 8 -4 5 -10 -11 -18 14 -10 27 8 15
22 6 21 180 30 75 4 140 10 144 14 4 5 3 8 -2 8 -84 1 -185 10 -207 19 -35 14
-97 14 -97 1 0 -17 -41 -34 -50 -20 -4 6 -10 11 -14 11 -20 -2 -65 13 -86 29
-23 18 -24 20 -9 35 20 21 72 28 65 10 -6 -17 32 -27 57 -14 16 9 18 17 12 47
-4 21 -7 42 -8 47 -1 6 -9 17 -17 25 -9 9 -14 31 -14 52 1 23 -3 39 -12 42 -8
3 -14 12 -14 20 0 19 -25 27 -39 13 -8 -8 -4 -18 15 -38 l25 -26 -26 -5 c-27
-6 -43 6 -25 17 14 9 -4 32 -41 51 -39 19 -60 18 -66 -6 -6 -24 -19 -26 -27
-4 -8 21 2 54 17 54 6 0 23 12 38 26 l28 26 26 -26 c15 -15 28 -26 29 -24 11
13 27 102 26 138 -1 25 2 117 5 205 l6 160 -33 34 c-33 34 -105 71 -136 71 -9
0 -29 10 -44 23 -14 12 -35 27 -45 34 -17 12 -17 13 -1 26 10 8 15 17 11 20
-3 4 3 15 14 24 11 10 23 28 27 40 4 13 12 22 18 20 6 -1 12 10 15 25 3 23 1
27 -14 21 -10 -3 -15 -3 -11 2 4 4 -6 20 -22 35 -19 18 -28 34 -24 44 3 9 2
16 -4 16 -12 0 -10 33 3 43 6 4 4 11 -5 17 -12 9 -12 10 5 8 12 -2 21 4 23 16
3 13 0 17 -11 13 -26 -10 -6 34 30 66 18 16 33 36 33 44 0 8 5 11 10 8 6 -3
10 -2 10 4 0 5 12 8 28 7 20 -3 26 -8 24 -22 -2 -15 -1 -16 7 -4 5 8 8 17 5
21 -2 4 3 10 12 13 12 4 15 2 10 -9 -3 -8 -1 -15 4 -15 6 0 10 4 10 9 0 5 7
12 16 15 15 6 15 4 0 -19 -21 -32 -10 -32 16 0 11 14 24 25 31 25 6 0 21 10
34 22 22 20 23 21 23 2 1 -18 1 -18 14 -1 8 10 31 20 53 22 21 2 52 11 68 19
17 9 36 16 43 16 19 0 102 50 102 61 0 5 9 9 20 9 11 0 20 5 20 10 0 7 6 7 18
2 9 -5 22 -8 28 -5z m294 -21 c0 -3 -4 -8 -10 -11 -5 -3 -10 -1 -10 4 0 6 5
11 10 11 6 0 10 -2 10 -4z m129 -119 c1 -24 -2 -27 -23 -23 -37 7 -61 22 -91
58 l-28 33 23 3 c15 3 31 -6 48 -25 23 -26 24 -26 19 -5 -3 12 -1 22 5 22 5 0
7 4 4 9 -4 5 0 11 6 14 15 5 36 -45 37 -86z m-1549 -133 c3 -11 11 -19 18 -18
6 1 23 2 37 3 18 1 25 7 25 21 0 11 7 20 15 20 8 0 15 -5 15 -11 0 -5 4 -8 8
-5 4 2 8 -4 8 -14 0 -10 -4 -16 -8 -14 -4 3 -8 0 -8 -5 0 -6 7 -11 15 -11 9 0
15 -9 15 -24 0 -31 10 -57 19 -51 9 5 7 -32 -2 -41 -4 -4 -7 -2 -7 4 0 7 -5
12 -11 12 -6 0 -9 -6 -6 -14 4 -9 -1 -17 -11 -19 -12 -3 -11 -5 5 -6 12 0 25
-6 28 -11 4 -6 3 -10 -2 -9 -18 3 -47 -3 -35 -8 6 -2 9 -10 5 -16 -11 -18 -19
-63 -22 -132 -1 -6 -12 -22 -25 -36 -15 -16 -22 -35 -20 -51 2 -18 -3 -28 -14
-32 -9 -2 1 -2 22 1 25 4 37 2 33 -4 -4 -6 0 -16 8 -23 8 -7 12 -17 8 -23 -3
-5 -1 -7 5 -3 6 3 13 2 17 -4 4 -6 11 -8 16 -5 14 9 11 -2 -5 -18 -17 -17 -56
-101 -56 -120 0 -8 -7 -20 -16 -28 -27 -22 -14 -130 27 -224 19 -44 38 -83 42
-86 9 -6 15 -31 16 -62 1 -11 6 -15 12 -11 7 4 10 1 7 -7 -3 -8 5 -24 18 -35
16 -16 19 -25 11 -33 -8 -8 -8 -11 1 -11 7 0 12 -14 12 -34 0 -40 9 -68 19
-61 10 6 10 -27 1 -40 -4 -5 -1 -32 6 -60 22 -77 28 -118 15 -111 -6 4 -20 -8
-31 -26 -21 -35 -27 -74 -10 -63 6 3 10 -1 10 -10 0 -9 3 -14 8 -12 10 6 36
-25 40 -48 2 -11 8 -23 14 -26 10 -6 -20 -24 -34 -21 -5 1 -8 -2 -8 -8 0 -6
-9 -6 -22 -1 -13 4 -28 6 -35 4 -6 -2 -17 6 -23 18 -10 17 -9 24 1 31 10 7 9
8 -5 4 -12 -4 -23 0 -32 11 -36 48 -96 190 -119 283 -37 148 -84 388 -85 432
0 44 -9 70 -21 62 -5 -3 -9 4 -9 15 0 10 4 21 10 23 5 2 12 23 15 48 3 25 10
70 15 100 20 116 22 160 16 378 0 23 -5 42 -9 42 -5 0 -6 4 -2 9 3 5 1 12 -4
16 -7 4 -7 15 0 33 6 15 12 51 12 81 2 33 7 56 15 59 6 2 12 8 12 13 0 6 -4 7
-10 4 -5 -3 -10 -1 -10 5 0 6 7 13 16 17 13 5 13 8 2 15 -10 8 -10 9 2 6 8 -3
17 -13 20 -24z m-110 -494 c0 -5 -2 -10 -4 -10 -3 0 -8 5 -11 10 -3 6 -1 10 4
10 6 0 11 -4 11 -10z m35 -50 c10 0 15 -11 15 -35 0 -44 -10 -44 -32 1 -20 39
-26 84 -7 52 5 -10 17 -18 24 -18z m505 -61 c0 -5 -4 -9 -10 -9 -5 0 -10 7
-10 16 0 8 5 12 10 9 6 -3 10 -10 10 -16z m-202 -68 c20 -37 15 -46 -15 -28
-12 7 -19 67 -9 67 2 0 13 -18 24 -39z m-311 -38 c-3 -10 -5 -4 -5 12 0 17 2
24 5 18 2 -7 2 -21 0 -30z m720 -63 c-4 -68 -11 -81 -26 -52 -8 14 -8 30 0 54
6 18 12 39 15 46 9 31 15 7 11 -48z m-731 -145 c-2 -7 -1 -16 4 -21 5 -5 14
-37 21 -71 10 -47 10 -66 2 -74 -15 -15 -54 46 -48 76 2 11 4 42 4 68 1 31 5
46 12 42 6 -4 8 -13 5 -20z m694 -30 c0 -28 -26 -41 -33 -16 -5 22 11 54 24
46 5 -4 9 -17 9 -30z m10 -240 c0 -15 -21 -12 -30 5 -11 20 -10 21 9 10 12 -6
21 -13 21 -15z m100 -45 c0 -12 -7 -20 -17 -21 -11 0 -13 -3 -5 -6 14 -5 17
-43 3 -43 -8 0 -21 47 -21 76 0 8 9 14 20 14 13 0 20 -7 20 -20z m-240 -180
c0 -5 -4 -10 -10 -10 -5 0 -10 5 -10 10 0 6 5 10 10 10 6 0 10 -4 10 -10z m50
-115 c32 -17 39 -32 15 -32 -8 0 -15 4 -15 8 0 4 -9 11 -20 14 -11 3 -20 11
-20 16 0 12 6 11 40 -6z m976 -212 c-8 -92 -20 -219 -25 -280 -7 -92 -15 -125
-39 -178 -56 -118 -104 -180 -236 -303 -92 -86 -161 -122 -233 -122 -31 0 -48
12 -132 87 -53 49 -98 91 -101 94 -3 3 -13 8 -23 12 -11 4 -15 12 -11 18 4 7
3 9 -3 6 -15 -9 -39 24 -37 51 1 18 -1 20 -12 11 -11 -9 -14 -8 -14 4 0 8 13
17 31 21 20 4 28 10 24 18 -4 7 0 5 8 -5 8 -9 22 -17 31 -17 9 0 16 -6 16 -14
0 -8 9 -18 20 -21 11 -4 18 -10 15 -15 -3 -4 4 -6 15 -3 11 3 28 -1 38 -8 14
-11 15 -11 5 1 -21 23 -15 30 15 14 31 -16 87 -20 62 -4 -12 8 -10 10 10 10
14 0 20 4 14 8 -6 4 -11 15 -11 24 0 14 6 16 25 11 17 -4 23 -2 18 6 -4 6 -2
11 3 11 21 0 10 27 -24 60 -19 19 -35 38 -35 43 0 5 -8 21 -18 35 -15 22 -16
31 -7 49 7 13 15 20 18 16 4 -3 7 1 7 9 0 9 7 19 16 22 8 3 12 10 9 16 -11 18
56 70 91 70 7 0 17 6 21 14 11 20 90 76 107 76 8 0 16 4 18 8 2 5 21 20 42 35
60 40 221 192 257 242 18 25 34 43 37 41 2 -3 -3 -80 -12 -173z m-1341 55 c6
-4 7 -8 4 -8 -4 0 1 -26 11 -57 9 -32 20 -71 24 -88 l8 -30 -20 25 c-10 14
-26 39 -35 55 -20 38 -22 18 -2 -32 8 -21 17 -51 19 -68 l5 -30 -19 23 c-32
39 -50 118 -49 216 l0 91 22 -45 c12 -25 27 -48 32 -52z m225 7 c-15 -18 -12
-23 17 -28 27 -4 53 -25 53 -44 0 -8 5 -11 10 -8 6 4 8 10 6 14 -3 4 1 8 9 8
19 0 19 -5 0 -41 -8 -15 -13 -31 -10 -35 6 -11 -28 -10 -43 2 -9 7 -11 6 -6
-7 4 -11 1 -16 -10 -16 -9 0 -16 -5 -16 -10 0 -7 -7 -7 -21 1 -16 8 -18 13 -9
19 7 5 19 6 27 3 9 -4 11 0 7 11 -4 12 -10 13 -24 6 -26 -14 -34 -13 -61 11
-13 11 -30 24 -38 29 -21 12 11 58 47 67 15 3 33 12 40 20 19 18 38 17 22 -2z
m-101 -28 c-17 -16 -32 -27 -35 -24 -8 8 35 54 50 54 9 0 2 -12 -15 -30z m-24
-79 c14 -6 25 -17 25 -25 0 -10 -3 -11 -12 -3 -7 6 -26 21 -42 34 -18 15 -26
28 -21 37 6 9 10 7 16 -9 5 -12 20 -27 34 -34z m402 -524 c-3 -3 -12 -4 -19
-1 -8 3 -5 6 6 6 11 1 17 -2 13 -5z m148 -42 c-3 -3 -11 0 -18 7 -9 10 -8 11
6 5 10 -3 15 -9 12 -12z"/>
<path d="M2316 2249 c4 -8 -1 -9 -16 -4 -42 13 -216 -31 -276 -70 -26 -17 -32
-40 -11 -47 16 -6 65 -1 97 8 20 6 17 0 -20 -35 -25 -23 -40 -45 -35 -49 6 -4
15 -17 22 -28 11 -20 10 -21 -10 -17 -20 5 -20 3 5 -19 15 -14 25 -28 21 -31
-3 -4 6 -11 21 -17 35 -13 39 -13 30 1 -4 7 -1 10 6 7 12 -4 50 24 50 36 0 2
-13 9 -30 15 -24 8 -30 16 -30 40 0 37 16 49 24 18 3 -12 19 -38 36 -57 17
-19 29 -29 25 -22 -4 8 5 12 34 12 44 0 71 26 71 67 0 28 19 29 48 3 23 -22
112 -37 112 -20 0 22 -86 64 -172 85 l-92 22 45 17 c62 24 248 55 252 42 2 -5
9 -6 15 -2 8 5 -4 16 -33 32 -46 24 -85 31 -85 16 0 -12 -55 -13 -85 -2 -19 7
-24 7 -19 -1z m-11 -190 c0 -20 -29 -17 -33 3 -2 11 3 16 15 14 10 -2 18 -9
18 -17z m-150 -89 c3 -5 2 -10 -4 -10 -5 0 -13 5 -16 10 -3 6 -2 10 4 10 5 0
13 -4 16 -10z"/>
<path d="M2792 1750 c-5 -22 -6 -42 -2 -45 9 -5 25 73 17 81 -2 3 -9 -13 -15
-36z"/>
<path d="M2777 1675 c-4 -8 -3 -16 1 -19 4 -3 9 4 9 15 2 23 -3 25 -10 4z"/>
<path d="M2767 1633 c-4 -3 -7 -16 -6 -27 0 -19 1 -19 10 3 10 24 8 36 -4 24z"/>
<path d="M1898 1534 c-36 -19 -35 -21 5 -19 91 4 90 4 77 20 -16 19 -47 19
-82 -1z"/>
<path d="M2595 2800 c3 -5 11 -10 16 -10 6 0 7 5 4 10 -3 6 -11 10 -16 10 -6
0 -7 -4 -4 -10z"/>
</g>
</svg>
